<svg xmlns="http://www.w3.org/2000/svg" viewBox="0 0 320 200" role="img" aria-labelledby="title desc">
  <title id="title">Bus to hotel in 15 minutes</title>
  <desc id="desc">A bus traveling from the station to the hotel with a 15 minute clock.</desc>
  <rect width="320" height="200" fill="#eef8ff" rx="24"/>
  <rect x="34" y="132" width="252" height="10" rx="5" fill="#b9d1e5"/>
  <rect x="44" y="74" width="74" height="56" rx="14" fill="#ffffff" stroke="#c6b4aa" stroke-width="4"/>
  <rect x="56" y="90" width="50" height="14" rx="7" fill="#d75a4a"/>
  <text x="81" y="100" text-anchor="middle" font-size="9" font-family="Arial, sans-serif" font-weight="700" fill="#ffffff">STATION</text>
  <rect x="202" y="66" width="76" height="68" rx="14" fill="#ffd78a" stroke="#c88f3f" stroke-width="4"/>
  <rect x="214" y="80" width="52" height="14" rx="6" fill="#8b5a2b"/>
  <rect x="216" y="102" width="14" height="18" rx="3" fill="#fff4d8"/>
  <rect x="234" y="102" width="14" height="18" rx="3" fill="#fff4d8"/>
  <rect x="252" y="102" width="14" height="18" rx="3" fill="#fff4d8"/>
  <text x="240" y="91" text-anchor="middle" font-size="10" font-family="Arial, sans-serif" font-weight="700" fill="#ffffff">HOTEL</text>
  <path d="M128 100h54" stroke="#4c7db0" stroke-width="6" stroke-linecap="round"/>
  <path d="M170 92l16 8-16 8" fill="none" stroke="#4c7db0" stroke-width="6" stroke-linecap="round" stroke-linejoin="round"/>
  <rect x="112" y="104" width="56" height="22" rx="8" fill="#3bb17e"/>
  <rect x="118" y="96" width="30" height="12" rx="5" fill="#7bd0a9"/>
  <circle cx="126" cy="128" r="7" fill="#2f4858"/>
  <circle cx="154" cy="128" r="7" fill="#2f4858"/>
  <circle cx="252" cy="150" r="22" fill="#ffffff" stroke="#4c9fd1" stroke-width="4"/>
  <text x="252" y="146" text-anchor="middle" font-size="14" font-family="Arial, sans-serif" font-weight="700" fill="#2f6d95">15</text>
  <text x="252" y="161" text-anchor="middle" font-size="10" font-family="Arial, sans-serif" font-weight="700" fill="#2f6d95">MIN</text>
</svg>
