<svg xmlns="http://www.w3.org/2000/svg" viewBox="0 0 320 200" role="img" aria-labelledby="title desc">
  <title id="title">Walk to hotel in 15 minutes</title>
  <desc id="desc">A person walking from the station to the hotel with a 15 minute clock.</desc>
  <rect width="320" height="200" fill="#fff4ea" rx="24"/>
  <rect x="34" y="132" width="252" height="10" rx="5" fill="#d8c3af"/>
  <rect x="44" y="74" width="74" height="56" rx="14" fill="#ffffff" stroke="#c6b4aa" stroke-width="4"/>
  <rect x="56" y="90" width="50" height="14" rx="7" fill="#d75a4a"/>
  <text x="81" y="100" text-anchor="middle" font-size="9" font-family="Arial, sans-serif" font-weight="700" fill="#ffffff">STATION</text>
  <rect x="202" y="66" width="76" height="68" rx="14" fill="#ffd78a" stroke="#c88f3f" stroke-width="4"/>
  <rect x="214" y="80" width="52" height="14" rx="6" fill="#8b5a2b"/>
  <rect x="216" y="102" width="14" height="18" rx="3" fill="#fff4d8"/>
  <rect x="234" y="102" width="14" height="18" rx="3" fill="#fff4d8"/>
  <rect x="252" y="102" width="14" height="18" rx="3" fill="#fff4d8"/>
  <text x="240" y="91" text-anchor="middle" font-size="10" font-family="Arial, sans-serif" font-weight="700" fill="#ffffff">HOTEL</text>
  <path d="M128 100h54" stroke="#4c7db0" stroke-width="6" stroke-linecap="round"/>
  <path d="M170 92l16 8-16 8" fill="none" stroke="#4c7db0" stroke-width="6" stroke-linecap="round" stroke-linejoin="round"/>
  <circle cx="138" cy="94" r="9" fill="#ef9b68"/>
  <path d="M138 104l-8 18h12l8-16" fill="#5b8bd1"/>
  <path d="M130 118l-14 14" stroke="#35506b" stroke-width="6" stroke-linecap="round"/>
  <path d="M144 120l16 12" stroke="#35506b" stroke-width="6" stroke-linecap="round"/>
  <path d="M136 110l-10 10" stroke="#35506b" stroke-width="5" stroke-linecap="round"/>
  <path d="M146 110l12 6" stroke="#35506b" stroke-width="5" stroke-linecap="round"/>
  <circle cx="252" cy="150" r="22" fill="#ffffff" stroke="#e28a4a" stroke-width="4"/>
  <text x="252" y="146" text-anchor="middle" font-size="14" font-family="Arial, sans-serif" font-weight="700" fill="#a45a23">15</text>
  <text x="252" y="161" text-anchor="middle" font-size="10" font-family="Arial, sans-serif" font-weight="700" fill="#a45a23">MIN</text>
</svg>
